<?xml version="1.0" encoding="iso-8859-1"?>
<!-- Generator: Adobe Illustrator 19.0.0, SVG Export Plug-In . SVG Version: 6.00 Build 0)  -->
<svg version="1.1" id="Layer_1" xmlns="http://www.w3.org/2000/svg" xmlns:xlink="http://www.w3.org/1999/xlink" x="0px" y="0px"
	 viewBox="0 0 512 512" style="enable-background:new 0 0 512 512;" xml:space="preserve">
<g>
	<g>
		<path d="M104.683,31.445l-15.34,20.28c-37.858,50.044-23.056,112.53-15.045,136.852c-4.476,7.514-10.274,19.053-13.956,33.246
			c-7.008,27.02-3.65,52.862,9.642,75.801c0.994-0.368,1.986-0.742,2.968-1.121c51.982-21.743,125.655-80.793,155.274-105.48
			L104.683,31.445z"/>
	</g>
</g>
<g>
	<g>
		<path d="M349.594,306.907c53.594-3.88,96.023-48.695,96.023-103.263c0-14.023-2.815-27.397-7.887-39.605l36.521-15.837
			l-43.501-17.186l-0.868-46.764l-31.421,32.606c-16.243-10.596-35.615-16.781-56.413-16.781
			c-57.106,0-103.567,46.46-103.567,103.567c0,9.165,1.21,18.05,3.456,26.52c-35.909,29.27-103.428,81.248-154.464,102.448
			C47.102,348.313,0,355.04,0,355.04l75.138,26.915L31.4,455.973c0,0,76.958-38.002,167.035-44.049
			c5.956,16.166,16.113,30.88,29.872,42.843c19.649,17.086,42.161,25.791,66.18,25.789c8.861,0,17.932-1.186,27.136-3.573
			c14.192-3.68,25.732-9.48,33.246-13.956c24.322,8.013,86.808,22.812,136.852-15.045L512,432.643L349.594,306.907z
			 M364.526,174.517c10.748,0,19.459,8.712,19.459,19.459c0,10.746-8.711,19.459-19.459,19.459
			c-10.746,0-19.459-8.712-19.459-19.459C345.068,183.229,353.78,174.517,364.526,174.517z"/>
	</g>
</g>
<g>
</g>
<g>
</g>
<g>
</g>
<g>
</g>
<g>
</g>
<g>
</g>
<g>
</g>
<g>
</g>
<g>
</g>
<g>
</g>
<g>
</g>
<g>
</g>
<g>
</g>
<g>
</g>
<g>
</g>
</svg>
